<svg width="309" height="63" viewBox="0 0 309 63" fill="none" xmlns="http://www.w3.org/2000/svg">
<g filter="url(#filter0_i)">
<rect width="309" height="63" rx="5" fill="#F8F8F8"/>
</g>
<path d="M50.1553 37V27.0469H53.4092C54.4893 27.0469 55.3005 27.2702 55.8428 27.7168C56.3896 28.1634 56.6631 28.8242 56.6631 29.6992C56.6631 30.1641 56.5309 30.5765 56.2666 30.9365C56.0023 31.292 55.6423 31.5677 55.1865 31.7637C55.7243 31.9141 56.1481 32.2012 56.458 32.625C56.7725 33.0443 56.9297 33.5456 56.9297 34.1289C56.9297 35.0221 56.6403 35.724 56.0615 36.2344C55.4827 36.7448 54.6647 37 53.6074 37H50.1553ZM51.4678 32.3447V35.9268H53.6348C54.2454 35.9268 54.7262 35.7695 55.0771 35.4551C55.4326 35.1361 55.6104 34.6986 55.6104 34.1426C55.6104 32.944 54.9587 32.3447 53.6553 32.3447H51.4678ZM51.4678 31.292H53.4502C54.0244 31.292 54.4824 31.1484 54.8242 30.8613C55.1706 30.5742 55.3438 30.1846 55.3438 29.6924C55.3438 29.1455 55.1842 28.749 54.8652 28.5029C54.5462 28.2523 54.0609 28.127 53.4092 28.127H51.4678V31.292ZM63.2461 37C63.1732 36.8542 63.1139 36.5944 63.0684 36.2207C62.4805 36.8314 61.7786 37.1367 60.9629 37.1367C60.2337 37.1367 59.6344 36.9316 59.165 36.5215C58.7002 36.1068 58.4678 35.5827 58.4678 34.9492C58.4678 34.179 58.7594 33.582 59.3428 33.1582C59.9307 32.7298 60.7555 32.5156 61.8174 32.5156H63.0479V31.9346C63.0479 31.4925 62.9157 31.1416 62.6514 30.8818C62.387 30.6175 61.9974 30.4854 61.4824 30.4854C61.0312 30.4854 60.653 30.5993 60.3477 30.8271C60.0423 31.055 59.8896 31.3307 59.8896 31.6543H58.6182C58.6182 31.2852 58.748 30.9297 59.0078 30.5879C59.2721 30.2415 59.6276 29.9681 60.0742 29.7676C60.5254 29.5671 61.0199 29.4668 61.5576 29.4668C62.4098 29.4668 63.0775 29.681 63.5605 30.1094C64.0436 30.5332 64.2943 31.1188 64.3125 31.8662V35.2705C64.3125 35.9495 64.3991 36.4896 64.5723 36.8906V37H63.2461ZM61.1475 36.0361C61.5439 36.0361 61.9199 35.9336 62.2754 35.7285C62.6309 35.5234 62.8883 35.2568 63.0479 34.9287V33.4111H62.0566C60.5072 33.4111 59.7324 33.8646 59.7324 34.7715C59.7324 35.168 59.8646 35.4779 60.1289 35.7012C60.3932 35.9245 60.7327 36.0361 61.1475 36.0361ZM67.6758 29.6035V35.9678H70.3828V29.6035H71.6475V35.9678H74.3477V29.6035H75.6191V37H66.4043V29.6035H67.6758ZM86.584 30.6289H84.1025V37H82.8379V30.6289H80.4043V29.6035H86.584V30.6289ZM90.3369 37.1367C89.3343 37.1367 88.5186 36.8086 87.8896 36.1523C87.2607 35.4915 86.9463 34.6097 86.9463 33.5068V33.2744C86.9463 32.5407 87.0853 31.8867 87.3633 31.3125C87.6458 30.7337 88.0378 30.2826 88.5391 29.959C89.0449 29.6309 89.5918 29.4668 90.1797 29.4668C91.1413 29.4668 91.8887 29.7835 92.4219 30.417C92.9551 31.0505 93.2217 31.9574 93.2217 33.1377V33.6641H88.2109C88.2292 34.3932 88.4411 34.9834 88.8467 35.4346C89.2568 35.8812 89.7764 36.1045 90.4053 36.1045C90.8519 36.1045 91.2301 36.0133 91.54 35.8311C91.8499 35.6488 92.1211 35.4072 92.3535 35.1064L93.126 35.708C92.5062 36.6605 91.5765 37.1367 90.3369 37.1367ZM90.1797 30.5059C89.6693 30.5059 89.2409 30.6927 88.8945 31.0664C88.5482 31.4355 88.334 31.9551 88.252 32.625H91.957V32.5293C91.9206 31.8867 91.7474 31.39 91.4375 31.0391C91.1276 30.6836 90.7083 30.5059 90.1797 30.5059ZM100.755 29.6035V37H99.4834V30.6494H96.9678L96.8174 33.418C96.7354 34.6895 96.5212 35.5986 96.1748 36.1455C95.833 36.6924 95.2884 36.9772 94.541 37H94.0352V35.8857L94.3975 35.8584C94.8076 35.8128 95.1016 35.5758 95.2793 35.1475C95.457 34.7191 95.571 33.9261 95.6211 32.7686L95.7578 29.6035H100.755ZM105.854 37.1367C104.852 37.1367 104.036 36.8086 103.407 36.1523C102.778 35.4915 102.464 34.6097 102.464 33.5068V33.2744C102.464 32.5407 102.603 31.8867 102.881 31.3125C103.163 30.7337 103.555 30.2826 104.057 29.959C104.562 29.6309 105.109 29.4668 105.697 29.4668C106.659 29.4668 107.406 29.7835 107.939 30.417C108.473 31.0505 108.739 31.9574 108.739 33.1377V33.6641H103.729C103.747 34.3932 103.959 34.9834 104.364 35.4346C104.774 35.8812 105.294 36.1045 105.923 36.1045C106.369 36.1045 106.748 36.0133 107.058 35.8311C107.368 35.6488 107.639 35.4072 107.871 35.1064L108.644 35.708C108.024 36.6605 107.094 37.1367 105.854 37.1367ZM105.697 30.5059C105.187 30.5059 104.758 30.6927 104.412 31.0664C104.066 31.4355 103.852 31.9551 103.77 32.625H107.475V32.5293C107.438 31.8867 107.265 31.39 106.955 31.0391C106.645 30.6836 106.226 30.5059 105.697 30.5059ZM109.936 33.4385C109.936 32.2035 110.175 31.2327 110.653 30.5264C111.132 29.82 111.788 29.4668 112.622 29.4668C113.009 29.4668 113.349 29.5329 113.641 29.665V26.5H114.905V29.7061C115.224 29.5465 115.598 29.4668 116.026 29.4668C116.865 29.4668 117.523 29.82 118.002 30.5264C118.48 31.2327 118.72 32.2513 118.72 33.582C118.72 34.6712 118.48 35.5371 118.002 36.1797C117.528 36.8223 116.874 37.1436 116.04 37.1436C115.598 37.1436 115.22 37.0706 114.905 36.9248V39.8438H113.641V36.9453C113.34 37.0775 112.996 37.1436 112.608 37.1436C111.779 37.1436 111.125 36.8223 110.646 36.1797C110.173 35.5371 109.936 34.6576 109.936 33.541V33.4385ZM117.455 33.4385C117.455 32.5088 117.296 31.7887 116.977 31.2783C116.658 30.7633 116.218 30.5059 115.657 30.5059C115.37 30.5059 115.119 30.5514 114.905 30.6426V35.9951C115.11 36.0726 115.366 36.1113 115.671 36.1113C116.236 36.1113 116.674 35.8926 116.983 35.4551C117.298 35.0176 117.455 34.3454 117.455 33.4385ZM111.2 33.582C111.2 34.4115 111.348 35.0404 111.645 35.4688C111.941 35.8971 112.367 36.1113 112.923 36.1113C113.187 36.1113 113.426 36.0703 113.641 35.9883V30.6221C113.449 30.5446 113.215 30.5059 112.937 30.5059C112.381 30.5059 111.952 30.7542 111.651 31.251C111.351 31.7477 111.2 32.5247 111.2 33.582ZM120.032 33.2334C120.032 32.5088 120.174 31.8571 120.456 31.2783C120.743 30.6995 121.14 30.2529 121.646 29.9385C122.156 29.624 122.737 29.4668 123.389 29.4668C124.396 29.4668 125.209 29.8154 125.829 30.5127C126.453 31.21 126.766 32.1374 126.766 33.2949V33.3838C126.766 34.1038 126.627 34.751 126.349 35.3252C126.075 35.8949 125.681 36.3392 125.166 36.6582C124.656 36.9772 124.068 37.1367 123.402 37.1367C122.4 37.1367 121.586 36.7881 120.962 36.0908C120.342 35.3936 120.032 34.4707 120.032 33.3223V33.2334ZM121.304 33.3838C121.304 34.2041 121.493 34.8626 121.871 35.3594C122.254 35.8561 122.764 36.1045 123.402 36.1045C124.045 36.1045 124.555 35.8538 124.934 35.3525C125.312 34.8467 125.501 34.1403 125.501 33.2334C125.501 32.4222 125.307 31.766 124.92 31.2646C124.537 30.7588 124.027 30.5059 123.389 30.5059C122.764 30.5059 122.261 30.7542 121.878 31.251C121.495 31.7477 121.304 32.4587 121.304 33.3838ZM134.395 37H133.13V33.8418H129.732V37H128.461V29.6035H129.732V32.8096H133.13V29.6035H134.395V37Z" fill="#949494"/>
<path d="M31.8438 34.292C31.5367 33.9723 31.1663 33.8013 30.7738 33.8013C30.3844 33.8013 30.0108 33.9691 29.691 34.2888L28.6906 35.2861C28.6083 35.2418 28.526 35.2006 28.4469 35.1595C28.3329 35.1025 28.2253 35.0486 28.1334 34.9917C27.1963 34.3965 26.3447 33.6208 25.5279 32.6173C25.1322 32.1171 24.8663 31.696 24.6732 31.2686C24.9328 31.0312 25.1734 30.7842 25.4076 30.5468C25.4963 30.4582 25.5849 30.3664 25.6736 30.2777C26.3384 29.6129 26.3384 28.7518 25.6736 28.0869L24.8093 27.2227C24.7112 27.1245 24.6098 27.0232 24.5149 26.9219C24.3249 26.7256 24.1255 26.523 23.9197 26.3331C23.6126 26.0291 23.2454 25.8677 22.8591 25.8677C22.4729 25.8677 22.0993 26.0291 21.7827 26.3331C21.7796 26.3362 21.7796 26.3362 21.7764 26.3394L20.7 27.4253C20.2948 27.8305 20.0637 28.3244 20.013 28.8974C19.937 29.8218 20.2093 30.6829 20.4183 31.2465C20.9311 32.6299 21.6973 33.9121 22.8401 35.2861C24.2268 36.9418 25.8952 38.2493 27.801 39.1706C28.5292 39.5157 29.5011 39.9241 30.587 39.9937C30.6535 39.9969 30.7231 40 30.7864 40C31.5177 40 32.1319 39.7373 32.6131 39.2149C32.6163 39.2086 32.6226 39.2054 32.6258 39.1991C32.7904 38.9996 32.9804 38.8192 33.1798 38.6261C33.3159 38.4963 33.4552 38.3601 33.5914 38.2177C33.9048 37.8916 34.0694 37.5117 34.0694 37.1223C34.0694 36.7297 33.9016 36.353 33.5819 36.0364L31.8438 34.292ZM32.9772 37.6257C32.974 37.6257 32.974 37.6288 32.9772 37.6257C32.8537 37.7586 32.7271 37.8789 32.591 38.0119C32.3852 38.2082 32.1762 38.4139 31.98 38.6451C31.6602 38.987 31.2835 39.1484 30.7896 39.1484C30.7421 39.1484 30.6914 39.1484 30.644 39.1453C29.7037 39.0851 28.8299 38.7179 28.1746 38.4045C26.3827 37.537 24.8093 36.3055 23.5018 34.7447C22.4222 33.4436 21.7004 32.2405 21.2224 30.9489C20.928 30.1606 20.8203 29.5464 20.8678 28.967C20.8995 28.5966 21.0419 28.2896 21.3047 28.0268L22.3843 26.9472C22.5394 26.8016 22.704 26.7225 22.8655 26.7225C23.0649 26.7225 23.2264 26.8428 23.3277 26.9441C23.3308 26.9472 23.334 26.9504 23.3372 26.9536C23.5303 27.134 23.7139 27.3208 23.907 27.5203C24.0052 27.6216 24.1065 27.7229 24.2078 27.8273L25.0721 28.6916C25.4076 29.0272 25.4076 29.3375 25.0721 29.673C24.9803 29.7648 24.8916 29.8566 24.7998 29.9453C24.5339 30.2176 24.2806 30.4708 24.0052 30.7178C23.9988 30.7241 23.9925 30.7273 23.9893 30.7336C23.7171 31.0059 23.7677 31.2718 23.8247 31.4522C23.8279 31.4617 23.831 31.4712 23.8342 31.4807C24.059 32.0253 24.3756 32.5381 24.8568 33.1491L24.8599 33.1523C25.7337 34.2287 26.655 35.0676 27.6712 35.7103C27.801 35.7926 27.934 35.8591 28.0606 35.9224C28.1746 35.9794 28.2822 36.0332 28.374 36.0902C28.3867 36.0965 28.3994 36.106 28.412 36.1124C28.5197 36.1662 28.621 36.1915 28.7255 36.1915C28.9882 36.1915 29.1528 36.0269 29.2067 35.9731L30.2894 34.8904C30.397 34.7827 30.568 34.6529 30.7674 34.6529C30.9637 34.6529 31.1252 34.7764 31.2233 34.884C31.2265 34.8872 31.2265 34.8872 31.2296 34.8904L32.974 36.6347C33.3001 36.9577 33.3001 37.2901 32.9772 37.6257Z" fill="#949494"/>
<path d="M28.0955 28.5681C28.9249 28.7074 29.6784 29.0999 30.2799 29.7014C30.8814 30.3029 31.2708 31.0564 31.4133 31.8859C31.4481 32.0948 31.6286 32.2404 31.8343 32.2404C31.8597 32.2404 31.8818 32.2373 31.9071 32.2341C32.1414 32.1961 32.2966 31.9745 32.2586 31.7402C32.0876 30.7367 31.6127 29.8217 30.8877 29.0968C30.1628 28.3718 29.2478 27.8969 28.2442 27.7259C28.01 27.6879 27.7915 27.8431 27.7504 28.0742C27.7092 28.3053 27.8612 28.5301 28.0955 28.5681Z" fill="#949494"/>
<path d="M34.9717 31.6168C34.6899 29.9642 33.9111 28.4605 32.7144 27.2638C31.5177 26.0671 30.014 25.2883 28.3614 25.0065C28.1303 24.9654 27.9118 25.1237 27.8707 25.3548C27.8327 25.589 27.9878 25.8075 28.2221 25.8486C29.6974 26.0987 31.0429 26.7984 32.1129 27.8653C33.183 28.9353 33.8795 30.2808 34.1296 31.7561C34.1644 31.9651 34.3448 32.1107 34.5506 32.1107C34.576 32.1107 34.5981 32.1075 34.6234 32.1044C34.8545 32.0695 35.0128 31.8479 34.9717 31.6168Z" fill="#949494"/>
<defs>
<filter id="filter0_i" x="0" y="0" width="309" height="66" filterUnits="userSpaceOnUse" color-interpolation-filters="sRGB">
<feFlood flood-opacity="0" result="BackgroundImageFix"/>
<feBlend mode="normal" in="SourceGraphic" in2="BackgroundImageFix" result="shape"/>
<feColorMatrix in="SourceAlpha" type="matrix" values="0 0 0 0 0 0 0 0 0 0 0 0 0 0 0 0 0 0 127 0" result="hardAlpha"/>
<feOffset dy="3"/>
<feGaussianBlur stdDeviation="5"/>
<feComposite in2="hardAlpha" operator="arithmetic" k2="-1" k3="1"/>
<feColorMatrix type="matrix" values="0 0 0 0 0.779167 0 0 0 0 0.779167 0 0 0 0 0.779167 0 0 0 0.25 0"/>
<feBlend mode="normal" in2="shape" result="effect1_innerShadow"/>
</filter>
</defs>
</svg>
